<svg width="270" height="81" viewBox="0 0 270 81" fill="none" xmlns="http://www.w3.org/2000/svg">
<g clip-path="url(#clip0_361_576)">
<path d="M91.1354 51.9419L82.6204 37.3489L78.9603 41.5129V51.9419H70.3182V4.02441H78.9603V31.2112L90.4618 16.8856H100.908L88.5301 31.0202L101.836 51.9419H91.1354Z" fill="#C51A1B"/>
<path d="M126.136 48.0447C124.001 50.3368 120.493 52.3487 115.358 52.3487C110.224 52.3487 106.78 50.3368 104.658 48.0447C101.531 44.7466 100.731 40.7864 100.731 34.3813C100.731 27.9762 101.531 24.0796 104.658 20.7815C106.78 18.4894 110.25 16.4902 115.358 16.4902C120.467 16.4902 124.013 18.5022 126.136 20.7815C129.249 24.0796 130.063 28.0526 130.063 34.3813C130.063 40.71 129.249 44.7339 126.136 48.0447ZM119.413 25.9005C118.409 24.8818 117.074 24.347 115.346 24.347C113.617 24.347 112.359 24.8818 111.355 25.9005C109.563 27.7088 109.347 30.7394 109.347 34.3686C109.347 37.9977 109.551 41.1048 111.355 42.913C112.347 43.9189 113.617 44.4538 115.346 44.4538C117.074 44.4538 118.409 43.9189 119.413 42.913C121.205 41.092 121.408 37.9977 121.408 34.3686C121.408 30.7394 121.217 27.7088 119.413 25.9005Z" fill="#C51A1B"/>
<path d="M174.226 51.9413V30.7394C174.226 25.9642 171.227 24.347 168.494 24.347C165.762 24.347 162.712 25.9515 162.712 30.5357V51.9413H154.07V30.7394C154.07 25.9642 151.07 24.347 148.338 24.347C145.606 24.347 142.543 25.9515 142.543 30.7394V51.9413H133.901V16.885H142.352V20.1194C144.614 17.7636 147.817 16.4902 150.994 16.4902C154.858 16.4902 157.971 17.891 160.17 20.9216C163.093 17.8273 166.219 16.4902 170.54 16.4902C173.997 16.4902 177.124 17.6235 179.055 19.5718C181.851 22.3987 182.855 25.6968 182.855 29.5424V51.954H174.213" fill="#C51A1B"/>
<path d="M197.826 10.8878H188.981V3.75684H197.826V10.8878ZM197.763 51.9417H189.121V16.8854H197.763V51.9544V51.9417Z" fill="#C51A1B"/>
<path d="M214.551 51.9419C207.434 51.9419 204.448 46.8993 204.448 41.9076V4.02441H213.09V41.3855C213.09 43.4739 213.954 44.5435 216.153 44.5435H219.482V51.9419H214.564" fill="#C51A1B"/>
<path d="M233.462 24.5637V51.9542H224.807V24.5637H221.223V17.9039H224.807V13.5235C224.807 8.54456 227.87 3.50195 234.924 3.50195H239.855V10.9003H236.461C234.402 10.9003 233.475 12.0464 233.475 14.0583V17.8912H239.855V24.551H233.475" fill="#C51A1B"/>
<path d="M266.06 48.0447C263.938 50.3368 260.418 52.3487 255.296 52.3487C250.174 52.3487 246.705 50.3368 244.582 48.0447C241.456 44.7466 240.655 40.7864 240.655 34.3813C240.655 27.9762 241.456 24.0796 244.582 20.7815C246.705 18.4894 250.174 16.4902 255.296 16.4902C260.418 16.4902 263.938 18.5022 266.06 20.7815C269.199 24.0796 270 28.0526 270 34.3813C270 40.71 269.199 44.7339 266.06 48.0447ZM259.35 25.9005C258.346 24.8818 257.012 24.347 255.296 24.347C253.58 24.347 252.309 24.8818 251.305 25.9005C249.513 27.7088 249.31 30.7394 249.31 34.3686C249.31 37.9977 249.513 41.1048 251.305 42.913C252.309 43.9189 253.567 44.4538 255.296 44.4538C257.024 44.4538 258.346 43.9189 259.35 42.913C261.142 41.092 261.345 37.9977 261.345 34.3686C261.345 30.7394 261.142 27.7088 259.35 25.9005Z" fill="#C51A1B"/>
<path d="M41.0497 16.541L33.1829 23.812L32.4458 24.4997C30.3742 26.4097 28.1502 26.4097 26.7649 26.4097H0C0.190633 22.9207 1.004 19.5844 2.37656 16.5537H41.0497V16.541Z" fill="#FFF155"/>
<path d="M55.3853 23.7866V23.8121H33.1829L41.0497 16.5411H41.0624L42.168 15.4969C43.9854 13.9434 45.1292 13.9434 46.184 13.9434H51.9539C51.9539 13.9434 51.9539 13.9561 51.9666 13.9688C53.6823 16.9358 54.8769 20.2593 55.3853 23.7866Z" fill="#FFD500"/>
<path d="M23.9562 32.0254L16.0894 39.2965L15.3523 39.9713C13.2807 41.8814 11.0567 41.8814 9.67143 41.8814H3.69825C2.02068 39.0036 0.864176 35.7946 0.304986 32.382C0.279568 32.2546 0.266859 32.14 0.25415 32.0127H23.9435L23.9562 32.0254Z" fill="#FFF155"/>
<path d="M55.6521 29.4404C55.6521 29.555 55.6394 29.6696 55.6267 29.7715C55.4106 33.146 54.5845 36.3549 53.2755 39.2964H16.0894L23.9561 32.0254H23.9689L25.0745 30.994C26.8919 29.4404 28.0357 29.4404 29.0905 29.4404H55.6521Z" fill="#FFD500"/>
<path d="M48.6495 9.35938H7.01526C7.01526 9.35938 7.04068 9.32117 7.05339 9.30844C12.1496 3.59094 19.5589 0 27.8197 0C36.0804 0 43.5406 3.61641 48.6495 9.35938Z" fill="#FFF155"/>
<path d="M48.6495 46.4785H7.01526C7.01526 46.4785 7.04068 46.5167 7.05339 46.5295C12.1496 52.2469 19.5589 55.8379 27.8197 55.8379C36.0804 55.8379 43.5406 52.2215 48.6495 46.4785Z" fill="#FFD500"/>
<path d="M3.64746 68.585H5.61734L8.41329 77.9571H8.45142L11.2347 68.585H13.2045L9.1504 80.8859H7.70159L3.64746 68.585Z" fill="white"/>
<path d="M13.9163 73.144C14.4119 72.6092 15.2126 72.0234 16.5852 72.0234C17.9577 72.0234 18.7457 72.6092 19.2413 73.144C19.9022 73.8953 20.1818 74.6211 20.1818 76.5058C20.1818 78.3904 19.9022 79.1289 19.2413 79.8802C18.7457 80.415 17.945 81.0008 16.5852 81.0008C15.2253 81.0008 14.4119 80.4023 13.9163 79.8802C13.2427 79.1417 12.9758 78.4031 12.9758 76.5058C12.9758 74.6084 13.2554 73.8953 13.9163 73.144ZM17.9831 74.4301C17.7289 74.0736 17.1825 73.7934 16.5724 73.7934C15.9624 73.7934 15.4159 74.0736 15.1618 74.4301C14.8313 74.8886 14.7297 75.2451 14.7297 76.5058C14.7297 77.7664 14.8313 78.1229 15.1618 78.5941C15.4159 78.9634 15.9751 79.2308 16.5724 79.2308C17.1698 79.2308 17.7162 78.9634 17.9831 78.5941C18.3136 78.1229 18.4152 77.7791 18.4152 76.5185C18.4152 75.2578 18.3136 74.8886 17.9831 74.4301Z" fill="white"/>
<path d="M22.1262 69.4766H23.8927V72.1379H25.1636V73.4877H23.8927V78.594C23.8927 79.0779 24.0833 79.2562 24.5154 79.2562H25.1763V80.9116H24.2613C23.0285 80.9116 22.1389 80.1348 22.1389 78.7468V73.5005H21.262V72.1507H22.1389V69.4893L22.1262 69.4766Z" fill="white"/>
<path d="M26.8285 72.138H28.5823V73.0676H28.6204C29.1669 72.3799 29.9676 72.0361 30.8953 72.0361C31.5943 72.0361 32.1789 72.2908 32.7127 72.711L31.4418 74.2264C31.0224 73.9207 30.7301 73.7934 30.2853 73.7934C29.4211 73.7934 28.5823 74.3537 28.5823 75.6271V80.8989H26.8285V72.138Z" fill="white"/>
<path d="M34.5428 77.1806C34.5428 78.6195 35.4197 79.3453 36.627 79.3453C37.3006 79.3453 38.025 79.027 38.5334 78.5049L39.8043 79.5873C38.94 80.5932 37.8217 81.0135 36.6525 81.0135C34.8605 81.0135 32.7762 80.1476 32.7762 76.5566C32.7762 73.1567 34.6953 72.0488 36.3856 72.0488C38.3173 72.0488 39.9949 73.4877 39.9949 75.7416V77.1933H34.5428V77.1806ZM38.2411 75.7289C38.1902 74.4046 37.4277 73.6915 36.3983 73.6915C35.3689 73.6915 34.5936 74.3919 34.5555 75.7289H38.2411Z" fill="white"/>
<path d="M52.4114 79.4727C51.6489 80.3641 50.594 81.0008 49.2723 81.0008C47.2643 81.0008 45.3071 79.7274 45.3071 76.5312C45.3071 73.335 47.2516 72.0361 49.2723 72.0361C50.594 72.0361 51.6489 72.6856 52.4114 73.5642L51.1151 74.723C50.683 74.1882 50.0602 73.8061 49.3358 73.8061C47.9124 73.8061 47.0609 74.6211 47.0609 76.5439C47.0609 78.4667 47.8997 79.2562 49.3358 79.2562C50.0602 79.2562 50.683 78.8742 51.1151 78.3394L52.4114 79.4982V79.4727Z" fill="white"/>
<path d="M54.1525 73.144C54.6354 72.6092 55.4361 72.0234 56.8086 72.0234C58.1812 72.0234 58.9819 72.6092 59.4648 73.144C60.1384 73.8953 60.418 74.6211 60.418 76.5058C60.418 78.3904 60.1384 79.1289 59.4648 79.8802C58.9819 80.415 58.1685 81.0008 56.8086 81.0008C55.4488 81.0008 54.6354 80.4023 54.1525 79.8802C53.4789 79.1417 53.212 78.4031 53.212 76.5058C53.212 74.6084 53.4789 73.8953 54.1525 73.144ZM58.2193 74.4301C57.9652 74.0736 57.406 73.7934 56.8086 73.7934C56.2113 73.7934 55.6521 74.0736 55.3853 74.4301C55.0548 74.8886 54.9532 75.2451 54.9532 76.5058C54.9532 77.7664 55.0548 78.1229 55.3853 78.5941C55.6394 78.9634 56.1986 79.2308 56.8086 79.2308C57.4187 79.2308 57.9652 78.9634 58.2193 78.5941C58.5498 78.1229 58.6514 77.7791 58.6514 76.5185C58.6514 75.2578 58.5498 74.8886 58.2193 74.4301Z" fill="white"/>
<path d="M62.2607 72.138H64.0146V73.0676H64.0527C64.5992 72.3799 65.3871 72.0361 66.3276 72.0361C67.6874 72.0361 69.2379 73.093 69.2379 75.0795V80.8989H67.4841V75.678C67.4841 74.481 66.7343 73.7934 65.7684 73.7934C64.8025 73.7934 64.0273 74.481 64.0273 75.678V80.8989H62.2734V72.138H62.2607Z" fill="white"/>
<path d="M71.7797 78.2121C72.5422 78.9634 73.381 79.3327 74.5502 79.3327C75.5415 79.3327 76.2659 78.9634 76.2659 78.2121C76.2659 77.6009 75.7957 77.4099 75.1984 77.3462L73.6479 77.2062C72.1991 77.0788 71.1316 76.2256 71.1316 74.7103C71.1316 72.9276 72.5422 72.0107 74.3977 72.0107C75.9355 72.0107 76.9649 72.4819 77.8291 73.2077L76.7362 74.4938C76.0499 74.01 75.3382 73.6789 74.3977 73.6789C73.2794 73.6789 72.8981 74.1246 72.8981 74.7358C72.8981 75.1178 73.165 75.4998 74.0546 75.5635L75.5034 75.6654C77.3081 75.7927 78.0452 76.9005 78.0452 78.2885C78.0452 80.0076 76.4566 80.9881 74.4232 80.9881C73.0125 80.9881 71.7035 80.466 70.5851 79.4218L71.8051 78.2121H71.7797Z" fill="white"/>
<path d="M81.1335 77.1806C81.1335 78.6195 82.0104 79.3453 83.2177 79.3453C83.8913 79.3453 84.6157 79.027 85.1368 78.5049L86.4076 79.5873C85.5561 80.5932 84.4251 81.0135 83.2558 81.0135C81.4639 81.0135 79.3796 80.1476 79.3796 76.5566C79.3796 73.1567 81.286 72.0488 82.9763 72.0488C84.908 72.0488 86.5856 73.4877 86.5856 75.7416V77.1933H81.1462L81.1335 77.1806ZM84.819 75.7289C84.7682 74.4046 84.0057 73.6915 82.9763 73.6915C81.9468 73.6915 81.1716 74.3919 81.1335 75.7289H84.819Z" fill="white"/>
<path d="M88.4792 68.585H90.2331V70.355H88.4792V68.585ZM88.4792 72.1377H90.2331V80.8986H88.4792V72.1377Z" fill="white"/>
<path d="M92.5587 68.585H94.3252V78.632C94.3252 79.0267 94.554 79.2432 94.9734 79.2432H95.5707V80.8986H94.7955C93.5246 80.8986 92.5587 80.351 92.5587 78.772V68.585Z" fill="white"/>
<path d="M97.0068 68.585H98.7607V78.632C98.7607 79.0267 98.9894 79.2432 99.4215 79.2432H100.032V80.8986H99.2563C97.9854 80.8986 97.0195 80.351 97.0195 78.772V68.585H97.0068Z" fill="white"/>
<path d="M102.789 77.1806C102.789 78.6195 103.666 79.3453 104.886 79.3453C105.547 79.3453 106.272 79.027 106.793 78.5049L108.064 79.5873C107.199 80.5932 106.081 81.0135 104.912 81.0135C103.12 81.0135 101.036 80.1476 101.036 76.5566C101.036 73.1567 102.955 72.0488 104.645 72.0488C106.577 72.0488 108.241 73.4877 108.241 75.7416V77.1933H102.789V77.1806ZM106.475 75.7289C106.424 74.4046 105.662 73.6915 104.632 73.6915C103.603 73.6915 102.815 74.3919 102.789 75.7289H106.475Z" fill="white"/>
<path d="M110.084 72.138H111.838V73.0676H111.876C112.435 72.3799 113.223 72.0361 114.151 72.0361C114.85 72.0361 115.447 72.2908 115.981 72.711L114.71 74.2264C114.291 73.9207 113.999 73.7934 113.554 73.7934C112.69 73.7934 111.851 74.3537 111.851 75.6271V80.8989H110.097V72.138H110.084Z" fill="white"/>
<path d="M121.192 78.2121C121.942 78.9634 122.78 79.3327 123.95 79.3327C124.954 79.3327 125.665 78.9634 125.665 78.2121C125.665 77.6009 125.208 77.4099 124.598 77.3462L123.047 77.2062C121.599 77.0788 120.531 76.2256 120.531 74.7103C120.531 72.9276 121.942 72.0107 123.784 72.0107C125.322 72.0107 126.352 72.4819 127.216 73.2077L126.123 74.4938C125.437 74.01 124.725 73.6789 123.784 73.6789C122.666 73.6789 122.285 74.1246 122.285 74.7358C122.285 75.1178 122.552 75.4998 123.429 75.5635L124.877 75.6654C126.695 75.7927 127.419 76.9005 127.419 78.2885C127.419 80.0076 125.831 80.9881 123.797 80.9881C122.387 80.9881 121.077 80.466 119.959 79.4218L121.179 78.2121H121.192Z" fill="white"/>
<path d="M129.313 69.4766H131.067V72.1379H132.338V73.4877H131.067V78.594C131.067 79.0779 131.257 79.2562 131.689 79.2562H132.35V80.9116H131.435C130.202 80.9116 129.313 80.1348 129.313 78.7468V73.5005H128.436V72.1507H129.313V69.4893V69.4766Z" fill="white"/>
<path d="M134.523 73.144C134.994 72.6092 135.82 72.0234 137.18 72.0234C138.539 72.0234 139.353 72.6092 139.836 73.144C140.509 73.8953 140.789 74.6211 140.789 76.5058C140.789 78.3904 140.509 79.1289 139.836 79.8802C139.353 80.415 138.552 81.0008 137.18 81.0008C135.807 81.0008 135.006 80.4023 134.523 79.8802C133.85 79.1417 133.57 78.4031 133.57 76.5058C133.57 74.6084 133.85 73.8953 134.523 73.144ZM138.59 74.4301C138.336 74.0736 137.777 73.7934 137.18 73.7934C136.582 73.7934 136.023 74.0736 135.769 74.4301C135.439 74.8886 135.337 75.2451 135.337 76.5058C135.337 77.7664 135.439 78.1229 135.769 78.5941C136.023 78.9634 136.582 79.2308 137.18 79.2308C137.777 79.2308 138.336 78.9634 138.59 78.5941C138.921 78.1229 139.022 77.7791 139.022 76.5185C139.022 75.2578 138.921 74.8886 138.59 74.4301Z" fill="white"/>
<path d="M142.619 72.138H144.373V73.0676H144.411C144.957 72.3799 145.758 72.0361 146.686 72.0361C147.398 72.0361 147.982 72.2908 148.516 72.711L147.245 74.2264C146.838 73.9207 146.546 73.7934 146.101 73.7934C145.237 73.7934 144.386 74.3537 144.386 75.6271V80.8989H142.632V72.138H142.619Z" fill="white"/>
<path d="M150.346 77.1806C150.346 78.6195 151.223 79.3453 152.43 79.3453C153.104 79.3453 153.828 79.027 154.349 78.5049L155.633 79.5873C154.769 80.5932 153.65 81.0135 152.481 81.0135C150.689 81.0135 148.605 80.1476 148.605 76.5566C148.605 73.1567 150.524 72.0488 152.214 72.0488C154.146 72.0488 155.811 73.4877 155.811 75.7416V77.1933H150.371L150.346 77.1806ZM154.044 75.7289C153.993 74.4046 153.231 73.6915 152.201 73.6915C151.172 73.6915 150.397 74.3919 150.359 75.7289H154.044Z" fill="white"/>
<path d="M157.908 78.2121C158.67 78.9634 159.496 79.3327 160.666 79.3327C161.67 79.3327 162.394 78.9634 162.394 78.2121C162.394 77.6009 161.924 77.4099 161.326 77.3462L159.776 77.2062C158.327 77.0788 157.26 76.2256 157.26 74.7103C157.26 72.9276 158.683 72.0107 160.526 72.0107C162.064 72.0107 163.093 72.4819 163.957 73.2077L162.864 74.4938C162.178 74.01 161.479 73.6789 160.526 73.6789C159.407 73.6789 159.026 74.1246 159.026 74.7358C159.026 75.1178 159.306 75.4998 160.183 75.5635L161.631 75.6654C163.436 75.7927 164.161 76.9005 164.161 78.2885C164.161 80.0076 162.559 80.9881 160.539 80.9881C159.115 80.9881 157.806 80.466 156.688 79.4218L157.908 78.2121Z" fill="white"/>
<path d="M171.392 77.1806C171.392 78.6195 172.269 79.3453 173.476 79.3453C174.15 79.3453 174.874 79.027 175.395 78.5049L176.679 79.5873C175.815 80.5932 174.683 81.0135 173.514 81.0135C171.722 81.0135 169.638 80.1476 169.638 76.5566C169.638 73.1567 171.544 72.0488 173.235 72.0488C175.166 72.0488 176.844 73.4877 176.844 75.7416V77.1933H171.392V77.1806ZM175.077 75.7289C175.027 74.4046 174.264 73.6915 173.235 73.6915C172.205 73.6915 171.43 74.3919 171.392 75.7289H175.077Z" fill="white"/>
<path d="M178.788 69.4766H180.542V72.1379H181.826V73.4877H180.542V78.594C180.542 79.0779 180.733 79.2562 181.165 79.2562H181.826V80.9116H180.911C179.691 80.9116 178.788 80.1348 178.788 78.7468V73.5005H177.911V72.1507H178.788V69.4893V69.4766Z" fill="white"/>
<path d="M187.888 73.4875H187.011V72.1377H187.888V70.9789C187.888 69.3362 188.905 68.5977 190.265 68.5977H191.408V70.2658H190.404C189.832 70.2658 189.642 70.4568 189.642 70.9916V72.1504H191.408V73.5002H189.642V80.9113H187.888V73.5002V73.4875Z" fill="white"/>
<path d="M193.734 77.1806C193.734 78.6195 194.611 79.3453 195.818 79.3453C196.492 79.3453 197.216 79.027 197.737 78.5049L199.008 79.5873C198.157 80.5932 197.026 81.0135 195.856 81.0135C194.052 81.0135 191.98 80.1476 191.98 76.5566C191.98 73.1567 193.887 72.0488 195.577 72.0488C197.521 72.0488 199.186 73.4877 199.186 75.7416V77.1933H193.734V77.1806ZM197.42 75.7289C197.369 74.4046 196.606 73.6915 195.577 73.6915C194.547 73.6915 193.772 74.3919 193.734 75.7289H197.42Z" fill="white"/>
<path d="M201.029 72.138H202.795V73.0676H202.834C203.38 72.3799 204.168 72.0361 205.108 72.0361C205.82 72.0361 206.405 72.2908 206.939 72.711L205.668 74.2264C205.248 73.9207 204.956 73.7934 204.511 73.7934C203.647 73.7934 202.808 74.3537 202.808 75.6271V80.8989H201.042V72.138H201.029Z" fill="white"/>
<path d="M207.841 72.138H209.595V73.0676H209.633C210.192 72.3799 210.98 72.0361 211.92 72.0361C213.128 72.0361 213.751 72.5328 214.373 73.1822C215.098 72.3927 215.949 72.0361 217.131 72.0361C218.491 72.0361 220.041 73.093 220.041 75.0795V80.8989H218.288V75.678C218.288 74.481 217.551 73.7934 216.559 73.7934C215.568 73.7934 214.818 74.481 214.818 75.678V80.8989H213.064V75.678C213.064 74.481 212.314 73.7934 211.336 73.7934C210.357 73.7934 209.595 74.481 209.595 75.678V80.8989H207.841V72.138Z" fill="white"/>
<path d="M223.765 77.1806C223.765 78.6195 224.642 79.3453 225.849 79.3453C226.523 79.3453 227.235 79.027 227.756 78.5049L229.039 79.5873C228.175 80.5932 227.057 81.0135 225.875 81.0135C224.083 81.0135 221.999 80.1476 221.999 76.5566C221.999 73.1567 223.905 72.0488 225.608 72.0488C227.527 72.0488 229.204 73.4877 229.204 75.7416V77.1933H223.765V77.1806ZM227.451 75.7289C227.4 74.4046 226.637 73.6915 225.608 73.6915C224.578 73.6915 223.791 74.3919 223.765 75.7289H227.451Z" fill="white"/>
<path d="M231.149 69.4766H232.916V72.1379H234.199V73.4877H232.916V78.594C232.916 79.0779 233.106 79.2562 233.538 79.2562H234.199V80.9116H233.271C232.051 80.9116 231.149 80.1348 231.149 78.7468V73.5005H230.272V72.1507H231.149V69.4893V69.4766Z" fill="white"/>
<path d="M235.851 72.1377H237.618V77.3586C237.618 78.5556 238.355 79.2432 239.359 79.2432C240.363 79.2432 241.087 78.5556 241.087 77.3586V72.1377H242.841V80.8986H241.087V79.969H241.049C240.503 80.6567 239.702 81.0005 238.787 81.0005C237.402 81.0005 235.851 79.9436 235.851 77.9571V72.125V72.1377Z" fill="white"/>
<path d="M245.103 72.138H246.857V73.0676H246.895C247.442 72.3799 248.242 72.0361 249.17 72.0361C249.882 72.0361 250.466 72.2908 251 72.711L249.729 74.2264C249.31 73.9207 249.018 73.7934 248.573 73.7934C247.709 73.7934 246.87 74.3537 246.87 75.6271V80.8989H245.116V72.138H245.103Z" fill="white"/>
<path d="M252.843 77.1806C252.843 78.6195 253.707 79.3453 254.927 79.3453C255.601 79.3453 256.325 79.027 256.846 78.5049L258.117 79.5873C257.253 80.5932 256.135 81.0135 254.965 81.0135C253.173 81.0135 251.089 80.1476 251.089 76.5566C251.089 73.1567 253.008 72.0488 254.699 72.0488C256.63 72.0488 258.308 73.4877 258.308 75.7416V77.1933H252.856L252.843 77.1806ZM256.529 75.7289C256.478 74.4046 255.715 73.6915 254.686 73.6915C253.656 73.6915 252.868 74.3919 252.843 75.7289H256.529Z" fill="white"/>
<path d="M260.392 78.2121C261.142 78.9634 261.968 79.3327 263.15 79.3327C264.154 79.3327 264.866 78.9634 264.866 78.2121C264.866 77.6009 264.408 77.4099 263.811 77.3462L262.248 77.2062C260.799 77.0788 259.731 76.2256 259.731 74.7103C259.731 72.9276 261.142 72.0107 262.985 72.0107C264.522 72.0107 265.565 72.4819 266.429 73.2077L265.349 74.4938C264.65 74.01 263.951 73.6789 262.997 73.6789C261.879 73.6789 261.51 74.1246 261.51 74.7358C261.51 75.1178 261.777 75.4998 262.667 75.5635L264.116 75.6654C265.933 75.7927 266.645 76.9005 266.645 78.2885C266.645 80.0076 265.056 80.9881 263.023 80.9881C261.612 80.9881 260.303 80.466 259.172 79.4218L260.405 78.2121H260.392Z" fill="white"/>
</g>
<defs>
<clipPath id="clip0_361_576">
<rect width="270" height="81" fill="white"/>
</clipPath>
</defs>
</svg>
